<svg width="200" height="94" viewBox="0 0 200 94" fill="none" xmlns="http://www.w3.org/2000/svg">
<path d="M156.723 27.7427L171.619 40.8747L160.957 50.7827L145.512 37.7293L142.454 35.1343V50.704H126.068V3.44458H142.454V19.6433L145.041 17.4415L160.957 3.68047L172.089 13.903L156.723 27.7427Z" fill="#E12C30"/>
<path d="M75.9703 27.035C75.8135 15.0825 66.9542 5.09592 55.1157 3.60186C54.6453 3.52322 54.0965 3.44458 53.6261 3.44458H29.2435V50.704H53.6261C54.0965 50.704 54.6453 50.6254 55.1157 50.5467C66.9542 49.0527 75.8135 39.0661 75.9703 27.1136V27.035ZM52.9205 35.3703C52.1365 35.5275 51.3525 35.6062 50.4901 35.6062H45.9428V18.5424H50.4901C51.2741 18.5424 52.1365 18.6211 52.9205 18.7783C57.4677 19.0929 60.8389 23.1032 60.5253 27.664C60.2117 31.753 56.9973 35.0557 52.9205 35.3703Z" fill="#E12C30"/>
<path d="M75.9703 27.035C75.8135 15.0825 66.9542 5.09592 55.1157 3.60186C54.6453 3.52322 54.0965 3.44458 53.6261 3.44458H29.2435V50.704H53.6261C54.0965 50.704 54.6453 50.6254 55.1157 50.5467C66.9542 49.0527 75.8135 39.0661 75.9703 27.1136V27.035ZM52.9205 35.3703C52.1365 35.5275 51.3525 35.6062 50.4901 35.6062H45.9428V18.5424H50.4901C51.2741 18.5424 52.1365 18.6211 52.9205 18.7783C57.4677 19.0929 60.8389 23.1032 60.5253 27.664C60.2117 31.753 56.9973 35.0557 52.9205 35.3703Z" fill="#E12C30"/>
<path d="M99.1767 -0.015625C83.3398 -0.015625 70.5605 11.7796 70.5605 26.327C70.5605 40.8744 83.3398 52.6696 99.1767 52.6696C115.014 52.6696 127.793 40.8744 127.793 26.327C127.793 11.7796 115.014 -0.015625 99.1767 -0.015625ZM99.1767 37.0999C93.2183 36.6281 88.8278 31.3596 89.3766 25.3834C89.847 19.4071 95.0999 15.0036 101.058 15.554C106.625 16.0258 110.937 20.7439 110.937 26.327C110.623 32.5391 105.37 37.3358 99.1767 37.0999Z" fill="#E12C30"/>
<path d="M128.577 73.3506H131.87L130.223 68.0034L128.577 73.3506Z" fill="#E12C30"/>
<path d="M79.3414 73.3506H82.6343L80.9878 68.0034L79.3414 73.3506Z" fill="#E12C30"/>
<path d="M67.1894 67.1386H65.8566V70.4412H66.9542C67.5814 70.5199 68.287 70.3626 68.8358 69.9694C69.2278 69.6549 69.3846 69.2617 69.3846 68.7899C69.3846 68.3181 69.2278 67.9249 68.9142 67.6104C68.4438 67.2172 67.8166 67.0599 67.1894 67.1386Z" fill="#E12C30"/>
<path d="M195.766 50.0747H4.23363C1.88161 50.0747 0 51.962 0 54.321V88.8416C0 91.2007 1.88161 93.0879 4.23363 93.0879H195.766C198.118 93.0879 200 91.2007 200 88.8416V54.321C200 51.962 198.118 50.0747 195.766 50.0747ZM28.4594 75.2378C28.1458 76.1028 27.597 76.8105 26.9698 77.4396C26.421 77.99 25.637 78.3832 24.9314 78.6191C24.069 78.855 23.1282 79.0123 22.1874 79.0123H15.3665V64.0717H22.1874C23.285 63.9931 24.3826 64.2289 25.4802 64.6221C26.2642 64.9367 26.9698 65.4871 27.5186 66.1948C28.0674 66.9025 28.4594 67.6889 28.6946 68.5539C28.9298 69.4975 29.0866 70.4411 29.0866 71.4633C29.0082 72.8001 28.8514 74.0583 28.4594 75.2378ZM43.9044 79.0909H31.3602V64.1503H43.7475V67.3743H35.9859V69.7334H43.1203V72.8001H35.9859V75.7096H43.9044V79.0909ZM58.3301 76.8891C57.7813 77.6755 56.9972 78.3832 56.1348 78.6977C54.9588 79.1696 53.7828 79.3268 52.5284 79.3268C50.6468 79.5627 48.7652 79.0123 47.2756 77.8328C46.2564 76.8105 45.7076 75.4737 45.6292 74.1369L50.0196 73.8224C50.098 74.3728 50.2548 75.0019 50.5684 75.4737C51.0388 76.1028 51.8228 76.4173 52.6068 76.4173C53.1556 76.4173 53.7044 76.2601 54.0964 75.9455C54.41 75.7096 54.6452 75.3164 54.6452 74.8446C54.6452 74.4515 54.4884 74.0583 54.0964 73.8224C53.3908 73.3506 52.6068 73.036 51.7444 72.9574C50.1764 72.7215 48.6868 72.0924 47.4324 71.1488C46.57 70.4411 46.0996 69.3402 46.0996 68.2393C46.0996 67.453 46.3348 66.6666 46.8052 66.0376C47.2756 65.3298 47.9812 64.7794 48.8436 64.3862C50.0196 63.9144 51.274 63.7571 52.5284 63.8358C54.018 63.7571 55.586 64.0717 56.9188 64.9367C58.0164 65.723 58.6437 66.9812 58.7221 68.318L54.4101 68.5539C54.3316 67.453 53.3908 66.588 52.2932 66.588C52.2148 66.588 52.2148 66.588 52.1364 66.588C51.666 66.588 51.274 66.6666 50.9604 66.9025C50.7252 67.1385 50.5684 67.3743 50.5684 67.7675C50.5684 68.0034 50.7252 68.2393 50.882 68.3966C51.3524 68.7111 51.9012 68.8684 52.45 68.947C53.9396 69.1829 55.3509 69.6548 56.7621 70.2838C57.5461 70.677 58.1733 71.2274 58.6437 71.9352C59.0357 72.6429 59.2709 73.3506 59.2709 74.1369C59.1141 75.1592 58.8789 76.1028 58.3301 76.8891ZM68.4437 73.5079H65.8565V79.0909H61.2309V64.1503H68.9142C70.247 64.0717 71.5798 64.4649 72.6774 65.3299C73.5398 66.1948 74.0102 67.453 73.9318 68.7111C74.0102 70.0479 73.5398 71.3061 72.599 72.2497C71.423 73.1933 69.9333 73.5865 68.4437 73.5079ZM84.2807 79.0909L83.4967 76.6532H78.2438L77.5382 79.0909H72.8342L78.479 64.1503H83.4967L89.0631 79.0909H84.2807ZM102.94 77.0464C102.391 77.8328 101.607 78.3832 100.745 78.7764C99.7256 79.1695 98.5496 79.4054 97.452 79.3268C96.1192 79.4054 94.708 79.1695 93.4536 78.6191C92.3559 78.0687 91.4151 77.2037 90.7879 76.1028C90.0039 74.6874 89.6119 73.1147 89.6903 71.542C89.5335 69.4189 90.2391 67.3743 91.6503 65.8016C93.14 64.3862 95.1784 63.6785 97.2168 63.8358C98.7848 63.7571 100.353 64.1503 101.686 65.0153C102.862 65.8803 103.646 67.1384 104.038 68.5539L99.9608 69.4975C99.8824 69.1829 99.7256 68.7898 99.4904 68.4752C99.2552 68.1607 98.9416 67.8462 98.5496 67.6889C98.1576 67.5316 97.7656 67.3743 97.2952 67.3743C96.3543 67.2957 95.4136 67.8461 94.8648 68.6325C94.3943 69.4975 94.1592 70.5197 94.2376 71.542C94.1592 72.7215 94.3944 73.901 95.0216 74.9233C95.5704 75.5523 96.3544 75.8669 97.1384 75.8669C97.844 75.9455 98.628 75.631 99.0984 75.1592C99.5688 74.5301 99.9608 73.8224 100.118 72.9574L104.194 74.2156C103.959 75.2378 103.567 76.1814 102.94 77.0464ZM120.737 79.0909H116.111V73.036H111.094V79.0909H106.468V64.1503H111.094V69.4188H116.111V64.1503H120.737V79.0909ZM133.595 79.0909L132.811 76.6532H127.558L126.852 79.0909H122.148L127.793 64.1503H132.811L138.377 79.0909H133.595ZM154.136 79.0909H149.824L144.257 70.9129V79.0909H139.945V64.1503H144.257L149.902 72.407V64.1503H154.214L154.136 79.0909ZM170.051 67.7675H165.347V79.0123H160.721V67.7675H156.017V64.0717H170.051V67.7675ZM184.79 79.0909H172.246V64.1503H184.633V67.3743H176.872V69.7334H184.006V72.8001H176.872V75.7096H184.79V79.0909Z" fill="#E12C30"/>
<path d="M21.0114 67.4527H19.8354V75.6307H20.933C21.6386 75.7094 22.3442 75.5521 22.9714 75.3162C23.4418 75.0803 23.7554 74.6871 23.9122 74.2153C24.2258 73.3503 24.3042 72.4854 24.2258 71.6204C24.3826 70.4408 24.069 69.34 23.4418 68.3963C22.893 67.6886 21.9522 67.3741 21.0114 67.4527Z" fill="#E12C30"/>
</svg>
