<svg width="100" height="100" viewBox="0 0 100 100" fill="none" xmlns="http://www.w3.org/2000/svg">
<path d="M98.3871 48.3884H84.5363L99.5161 33.4086C100.141 32.7836 100.141 31.7553 99.5161 31.1303L68.871 0.485168C68.246 -0.139832 67.2177 -0.139832 66.5927 0.485168L18.6895 48.3884H1.6129C0.725806 48.3884 0 49.1142 0 50.0013V91.9368C0 92.8239 0.725806 93.5497 1.6129 93.5497H25.1411L31.129 99.5376C31.4516 99.8602 31.8548 100.001 32.2782 100.001C32.7016 100.001 33.1048 99.84 33.4274 99.5376L39.4153 93.5497H98.3871C99.2742 93.5497 100 92.8239 100 91.9368V50.0013C100 49.1142 99.2742 48.3884 98.3871 48.3884ZM67.7419 3.89243L96.1089 32.2594L79.9798 48.3884H67.6613C67.2984 44.2553 65.504 40.4247 62.5403 37.461C55.625 30.5457 44.375 30.5457 37.4395 37.461C34.4758 40.4247 32.7016 44.2553 32.3186 48.3884H23.2258L67.7419 3.89243ZM42.2984 48.3884C42.0766 47.34 42.379 46.211 43.1452 45.4448L46.0887 48.3884H42.2984ZM59.6976 48.3884C59.5161 48.1465 59.3347 47.9247 59.1129 47.7231C56.5927 45.2029 52.5 45.2029 49.9798 47.7231L45.4234 43.1666C46.6331 41.9569 48.7702 41.9569 49.9798 43.1666L52.2581 40.8884C51.0484 39.6787 49.4153 38.9932 47.7016 38.9932C45.9879 38.9932 44.3548 39.6586 43.1452 40.8884L41.996 39.7392L39.7177 42.0174L40.8669 43.1666C39.4556 44.5779 38.8306 46.5134 39.0323 48.3884H35.5847C35.9476 45.1223 37.379 42.0981 39.7379 39.7392C45.4032 34.0739 54.6169 34.0739 60.2621 39.7392C62.621 42.0981 64.0524 45.1223 64.4153 48.3884H59.6976ZM32.2581 96.1102L29.6976 93.5497H34.8185L32.2581 96.1102ZM96.7742 90.3239H3.22581V51.6142H96.7742V90.3239Z" fill="white"/>
<path d="M45.1612 75.8069H41.9354C41.9354 79.3553 44.8387 82.2585 48.387 82.2585V83.8715H51.6128V82.2585C55.1612 82.2585 58.0645 79.3553 58.0645 75.8069C58.0645 72.2585 55.1612 69.3553 51.6128 69.3553V62.9037C53.387 62.9037 54.8387 64.3553 54.8387 66.1295H58.0645C58.0645 62.5811 55.1612 59.6779 51.6128 59.6779V58.065H48.387V59.6779C44.8387 59.6779 41.9354 62.5811 41.9354 66.1295C41.9354 69.6779 44.8387 72.5811 48.387 72.5811V79.0327C46.6128 79.0327 45.1612 77.5811 45.1612 75.8069ZM45.1612 66.1295C45.1612 64.3553 46.6128 62.9037 48.387 62.9037V69.3553C46.6128 69.3553 45.1612 67.9037 45.1612 66.1295ZM51.6128 72.5811C53.387 72.5811 54.8387 74.0327 54.8387 75.8069C54.8387 77.5811 53.387 79.0327 51.6128 79.0327V72.5811Z" fill="white"/>
<path d="M50.0001 88.7097C59.7783 88.7097 67.742 80.746 67.742 70.9678C67.742 61.1895 59.7783 53.2258 50.0001 53.2258C40.2218 53.2258 32.2581 61.1895 32.2581 70.9678C32.2581 80.746 40.2218 88.7097 50.0001 88.7097ZM50.0001 56.4516C58.0041 56.4516 64.5162 62.9637 64.5162 70.9678C64.5162 78.9718 58.0041 85.4839 50.0001 85.4839C41.996 85.4839 35.4839 78.9718 35.4839 70.9678C35.4839 62.9637 41.996 56.4516 50.0001 56.4516Z" fill="white"/>
<path d="M93.5484 85.4843V56.4521C93.5484 55.565 92.8226 54.8392 91.9355 54.8392H72.5806V58.065H90.3226V83.8714H72.5806V87.0972H91.9355C92.8226 87.0972 93.5484 86.3714 93.5484 85.4843Z" fill="white"/>
<path d="M8.06456 87.0972H27.4194V83.8714H9.67747V58.065H27.4194V54.8392H8.06456C7.17747 54.8392 6.45166 55.565 6.45166 56.4521V85.4843C6.45166 86.3714 7.17747 87.0972 8.06456 87.0972Z" fill="white"/>
<path d="M68.1857 13.5683L86.4317 31.8143L73.8913 44.3546L76.1696 46.6328L89.8591 32.9433C90.4841 32.3183 90.4841 31.2901 89.8591 30.6651L69.3147 10.1409C68.7099 9.53605 67.6413 9.53605 67.0365 10.1409L53.347 23.8304L55.6252 26.1086L68.1857 13.5683Z" fill="white"/>
</svg>
