<svg width="103" height="99" viewBox="0 0 103 99" fill="none" xmlns="http://www.w3.org/2000/svg">
<path d="M100.34 46.882L88.0615 37.5514L92.5408 22.7552C92.8364 21.7718 92.6545 20.697 92.0633 19.8737C91.4721 19.0504 90.4944 18.5473 89.4712 18.5244L74.0781 18.25L69.0531 3.61381C68.7121 2.63044 67.939 1.87576 66.984 1.5556C66.0063 1.23543 64.9377 1.39552 64.0964 1.99011L51.4772 10.8633L38.8807 1.96724C38.0394 1.37265 36.9708 1.21256 35.9931 1.53273C35.0154 1.8529 34.2423 2.60757 33.924 3.59094L28.899 18.2271L13.5059 18.5015C12.4827 18.5244 11.5277 19.0275 10.9138 19.8508C10.2999 20.6741 10.1408 21.7489 10.4364 22.7323L14.9156 37.5286L2.63746 46.8591C1.81891 47.4766 1.34143 48.46 1.34143 49.4891C1.34143 50.5182 1.81891 51.4787 2.63746 52.119L14.9156 61.4496L10.4591 76.2687C10.1635 77.2521 10.3454 78.3269 10.9366 79.1502C11.5277 79.9735 12.5054 80.4766 13.5286 80.4995L28.9218 80.7739L33.9467 95.4101C34.2878 96.3934 35.0609 97.1481 36.0158 97.4683C36.9935 97.7885 38.0622 97.6284 38.9035 97.0338L51.5227 88.1606L64.1419 97.0338C64.6876 97.4225 65.3469 97.6284 66.0063 97.6284C66.3474 97.6284 66.6885 97.5826 67.0068 97.4683C67.9845 97.1481 68.7575 96.3934 69.0759 95.4101L74.1008 80.7739L89.494 80.4995C90.5171 80.4766 91.4721 79.9735 92.086 79.1502C92.6772 78.3269 92.8591 77.2521 92.5635 76.2687L88.0843 61.4724L100.362 52.1419C101.181 51.5244 101.658 50.541 101.658 49.5119C101.658 48.4828 101.158 47.4995 100.34 46.882ZM39.199 26.7573C43.8375 26.7573 47.5891 31.3997 47.5891 37.1398C47.5891 42.8799 43.8375 47.5223 39.199 47.5223C34.5606 47.5223 30.809 42.8799 30.809 37.1398C30.809 31.3997 34.5606 26.7573 39.199 26.7573ZM38.6534 72.2895C38.1304 73.0213 37.2891 73.4558 36.3796 73.4558C35.7885 73.4558 35.22 73.2729 34.7425 72.9298C33.492 72.0151 33.1964 70.2542 34.1059 68.9964L64.3238 26.6887C64.8467 25.9568 65.688 25.5223 66.5975 25.5223C67.1887 25.5223 67.7571 25.7053 68.2346 26.0483C69.4851 26.9631 69.7807 28.724 68.8712 29.9818L38.6534 72.2895ZM63.8008 72.2666C59.1624 72.2666 55.4107 67.6242 55.4107 61.8841C55.4107 56.144 59.1624 51.5015 63.8008 51.5015C68.4392 51.5015 72.1909 56.144 72.1909 61.8841C72.1909 67.6013 68.4392 72.2666 63.8008 72.2666Z" stroke="white" stroke-width="4" stroke-miterlimit="10"/>
</svg>
