<svg width="90" height="94" viewBox="0 0 90 94" fill="none" xmlns="http://www.w3.org/2000/svg">
<path d="M90 17.0755H68.193C70.5955 13.5873 70.8173 8.8689 68.3963 5.08687C65.1622 0.00132223 58.3429 -1.52251 53.2238 1.70874C51.9302 2.51656 49.768 4.42593 45.961 11.531C45.6283 12.1736 45.2957 12.7978 44.9815 13.3853C44.6674 12.7794 44.3532 12.1552 44.0021 11.531C40.232 4.40757 38.0698 2.4982 36.7762 1.69038C31.6571 -1.52251 24.8563 -0.0170372 21.6037 5.06851C20.0329 7.52867 19.5154 10.4662 20.1622 13.3119C20.4764 14.6705 21.0308 15.9556 21.807 17.0755H0V43.7334H3.23409V94.0013H86.7659V43.7334H90V17.0755ZM56.1992 6.35367C57.0862 5.80288 58.0842 5.50913 59.1006 5.50913C59.5072 5.50913 59.9138 5.54585 60.3018 5.63765C61.7248 5.94976 62.9261 6.79429 63.7207 8.02437C65.3285 10.5396 64.5708 13.8994 62.039 15.4966C60.5051 16.4513 54.924 17.0021 49.3429 17.0755C51.8008 12.1002 54.6838 7.30835 56.1992 6.35367ZM26.2793 8.02437C27.0554 6.79429 28.2752 5.94976 29.6982 5.63765C30.1047 5.54585 30.5113 5.50913 30.8994 5.50913C31.9158 5.50913 32.9138 5.78452 33.8008 6.35367C35.3347 7.30835 38.2177 12.1185 40.6756 17.0755C37.885 17.0388 35.0945 16.8736 32.8029 16.6166C30.5113 16.3595 28.7372 15.974 27.9795 15.4966C26.7598 14.7255 25.8912 13.5138 25.577 12.1185C25.2628 10.6865 25.5031 9.23609 26.2793 8.02437ZM33.7823 88.4935H8.77823V43.7334H33.7823V88.4935ZM33.7823 38.2255H5.54415V22.5834H33.7823V38.2255ZM50.6735 88.4935H39.3265V22.5834H50.6735V88.4935ZM81.2218 88.4935H56.2177V43.7334H81.2218V88.4935ZM84.4559 38.2255H56.2177V22.5834H84.4559V38.2255Z" fill="#F9F9F9"/>
</svg>
